<svg width="319" height="66" viewBox="0 0 319 66" fill="none" xmlns="http://www.w3.org/2000/svg">
<path d="M36.4466 15.6027C32.628 15.2859 28.8094 14.9288 24.9851 14.6639C21.5639 14.4277 18.1369 14.2895 14.71 14.1225C14.255 14.0994 13.8518 14.0706 13.4832 13.7135C8.95039 9.30747 4.40032 4.91291 0 0.316766C1.82003 -0.126722 3.45575 0.0172676 5.08571 0.0403059C14.3183 0.184295 23.5279 0.685379 32.7086 1.66451C33.9412 1.71058 56.2768 3.87042 73.7053 10.9201C76.4296 12.1354 79.0445 13.5523 81.2561 15.6027C85.1266 19.1909 85.1381 23.0901 81.2446 26.6323C77.6391 29.9152 73.187 31.6374 68.7002 33.2731C68.2856 33.4228 67.9112 33.2558 67.5195 33.1176C66.143 32.628 64.7549 32.1615 63.2517 31.6431C64.3115 31.1766 65.3136 30.7619 66.2927 30.2954C67.3986 29.7655 68.4699 29.1723 69.2877 28.2277C70.336 27.0182 70.3532 25.8259 69.3223 24.5991C68.1589 23.2168 66.5807 22.4335 64.968 21.7424C60.0666 19.6517 54.8888 18.5516 49.6821 17.5897C45.6331 16.841 38.5028 15.8043 36.4466 15.6027Z" fill="#97CC6D"/>
<path d="M73.8782 45.1954C73.0891 46.2091 72.11 47.0154 71.0445 47.6951C69.4894 48.6972 67.8767 49.5324 66.2122 50.2581C63.868 49.5497 61.5296 49.0601 59.3352 48.68C59.5599 48.4784 59.773 48.2595 59.9803 48.0291C61.4893 46.3358 61.2935 44.9938 59.3295 43.8534C57.4 42.7246 55.2229 42.3041 53.063 41.8952C52.7463 41.8376 52.3258 41.7339 51.6635 41.659C46.716 41.0831 41.7628 40.7605 36.7807 40.7145C36.4064 40.7145 36.176 40.559 35.9456 40.3113C31.6201 35.6921 27.0067 31.3667 22.4279 26.7878C23.7756 26.5977 25.0024 26.8454 26.2177 26.9318C35.8995 27.6229 41.158 28.2911 47.2689 29.3739C55.0155 30.6294 62.6355 32.3343 69.6679 35.9801C71.2691 36.8095 72.755 37.8232 73.8839 39.2746C75.416 41.2328 75.4102 43.2314 73.8839 45.1954H73.8782Z" fill="#97CC6D"/>
<path d="M60.5562 57.4804C57.4863 57.1233 54.3992 56.9563 51.3063 56.9275C51.0759 56.9275 50.9319 56.8354 50.7879 56.6798C48.104 53.8116 45.2415 51.1276 42.3962 48.2824C43.2314 48.1614 43.9916 48.3227 44.7461 48.3688C46.7793 48.507 51.1278 48.8699 51.2948 48.8814C53.4374 49.1118 57.423 49.8317 57.8146 49.9008C62.6239 50.6784 67.3583 51.7208 71.724 53.9844C72.7147 54.497 73.6362 55.1305 74.3389 56.029C75.2892 57.25 75.2892 58.4883 74.3389 59.7094C73.8493 60.3372 73.2445 60.8325 72.5822 61.2587C69.6678 63.1363 66.3906 64.0924 63.0789 64.9391C62.3705 65.1176 61.6217 65.1925 60.9421 65.4459C59.9457 65.8203 59.3179 65.4459 58.7822 64.5705C59.9975 64.3055 61.1897 64.0233 62.3301 63.5625C63.58 63.0615 64.801 62.497 65.7225 61.4603C66.6613 60.412 66.5404 59.5769 65.3194 58.8685C63.9831 57.8663 60.9709 57.5438 60.5735 57.4747L60.5562 57.4804Z" fill="#97CC6D"/>
<path d="M102.52 54.1284C101.242 54.1284 99.825 54.0824 98.2757 53.9902C96.7206 53.8981 95.2173 53.7541 93.7544 53.5525C92.2915 53.3509 90.9956 53.1608 89.8667 52.9765L91.2375 46.2897C92.5507 46.3991 93.9042 46.5085 95.2922 46.6179C96.6803 46.7274 98.0107 46.808 99.2894 46.8656C100.568 46.9174 101.662 46.9462 102.578 46.9462C104.22 46.9462 105.544 46.8656 106.552 46.6986C107.554 46.5316 108.343 46.1514 108.908 45.5467C109.472 44.9419 109.922 43.9858 110.25 42.6726C110.325 42.3098 110.377 41.9584 110.417 41.6302C110.451 41.3019 110.474 41.0081 110.474 40.7547C110.474 39.7353 110.146 39.0383 109.49 38.6755C108.833 38.3126 107.716 38.1283 106.149 38.1283H99.681L101.161 31.1132H107.629C108.689 31.1132 109.582 31.0152 110.313 30.8137C111.045 30.6121 111.644 30.2377 112.122 29.6905C112.594 29.1434 112.963 28.337 113.216 27.2773C113.325 26.949 113.4 26.6034 113.435 26.2348C113.469 25.8719 113.492 25.5206 113.492 25.1923C113.492 24.4263 113.279 23.8676 112.865 23.522C112.444 23.1765 111.77 22.9576 110.837 22.8654C109.904 22.7733 108.672 22.7272 107.14 22.7272C106.08 22.7272 104.899 22.7618 103.603 22.8366C102.307 22.9115 101.017 23.0037 99.7386 23.1131C98.46 23.2225 97.3081 23.3492 96.2886 23.499L97.7112 16.7027C98.8056 16.4838 100.05 16.2822 101.438 16.0979C102.826 15.9136 104.214 15.7812 105.602 15.689C106.99 15.5969 108.269 15.5508 109.438 15.5508C112.836 15.5508 115.566 15.8503 117.628 16.455C119.69 17.0598 121.182 17.9352 122.092 19.0872C123.002 20.2391 123.462 21.6732 123.462 23.3896C123.462 24.1556 123.405 24.9159 123.295 25.6646C123.186 26.4133 123.042 27.0815 122.858 27.6632C122.236 29.7078 121.187 31.2514 119.707 32.2939C118.227 33.3364 116.539 34.0217 114.639 34.35V34.5689C116.355 34.9721 117.668 35.6287 118.584 36.5387C119.494 37.4545 119.955 38.8944 119.955 40.8641C119.955 41.3422 119.92 41.849 119.845 42.3962C119.77 42.9433 119.678 43.5308 119.569 44.1471C119.275 45.6791 118.82 47.0614 118.198 48.2825C117.576 49.5035 116.654 50.546 115.433 51.4042C114.207 52.2623 112.559 52.9304 110.474 53.4027C108.39 53.875 105.746 54.1169 102.532 54.1169L102.52 54.1284Z" fill="#97CC6D"/>
<path d="M140.05 54.1285C136.796 54.1285 134.152 53.8636 132.107 53.3337C130.063 52.8038 128.554 51.8708 127.586 50.5403C126.619 49.2099 126.135 47.3726 126.135 45.0342C126.135 43.721 126.256 42.2235 126.492 40.5417C126.728 38.8599 127.085 36.965 127.557 34.8455C128.289 31.5971 129.009 28.8382 129.723 26.569C130.437 24.3054 131.238 22.4509 132.136 21.0052C133.029 19.5653 134.135 18.4479 135.454 17.6646C136.767 16.8813 138.391 16.3342 140.332 16.0232C142.267 15.7121 144.64 15.5566 147.457 15.5566C148.591 15.5566 149.784 15.5912 151.045 15.6661C152.306 15.7409 153.51 15.8504 154.662 15.9944C155.814 16.1384 156.787 16.3054 157.594 16.4897L156.113 23.2284C154.91 23.119 153.833 23.0268 152.882 22.9519C151.932 22.8771 151.12 22.8252 150.446 22.7849C149.772 22.7504 149.196 22.7331 148.718 22.7331C147.002 22.7331 145.573 22.7964 144.444 22.9231C143.31 23.0499 142.383 23.3263 141.651 23.7468C140.92 24.1672 140.309 24.8065 139.814 25.6647C139.318 26.5229 138.875 27.7036 138.472 29.2011C138.069 30.6986 137.648 32.582 137.21 34.8455C136.807 36.7058 136.479 38.3185 136.226 39.6662C135.972 41.0197 135.84 42.1141 135.84 42.955C135.84 44.1241 136.093 44.9938 136.606 45.5583C137.118 46.1227 137.93 46.4971 139.042 46.6814C140.154 46.8657 141.663 46.9579 143.563 46.9579C144.732 46.9579 146.057 46.9118 147.537 46.8196C149.018 46.7275 150.325 46.6123 151.454 46.4625L149.922 53.3683C149.115 53.5123 148.148 53.6505 147.019 53.7772C145.884 53.9039 144.715 53.9961 143.511 54.0537C142.308 54.1113 141.156 54.1343 140.061 54.1343L140.05 54.1285Z" fill="#97CC6D"/>
<path d="M173.093 54.1284C169.55 54.1284 166.688 53.852 164.517 53.3048C162.345 52.7577 160.756 51.7728 159.748 50.3444C158.74 48.9218 158.239 46.8944 158.239 44.2623C158.239 43.0585 158.36 41.6532 158.596 40.0405C158.832 38.4336 159.189 36.6424 159.661 34.6726C160.318 31.5336 161.015 28.8496 161.74 26.6207C162.472 24.3917 163.319 22.5602 164.286 21.1145C165.254 19.6746 166.411 18.54 167.765 17.7164C169.118 16.8928 170.772 16.3283 172.724 16.0173C174.676 15.7063 176.986 15.5508 179.653 15.5508C181.041 15.5508 182.51 15.6084 184.065 15.7178C185.62 15.8272 187.163 15.9655 188.695 16.1267C190.227 16.2938 191.581 16.4838 192.75 16.7027L191.765 21.4716C190.631 21.3276 189.444 21.1894 188.206 21.0627C186.962 20.936 185.804 20.8323 184.727 20.7632C183.65 20.6883 182.728 20.6538 181.962 20.6538C179.699 20.6538 177.781 20.6998 176.209 20.792C174.636 20.8842 173.323 21.1491 172.263 21.5868C171.203 22.0245 170.299 22.7445 169.55 23.7524C168.802 24.7546 168.134 26.1542 167.552 27.9454C166.964 29.7366 166.4 32.0347 165.853 34.8511C165.415 36.7518 165.087 38.4221 164.868 39.862C164.649 41.3076 164.54 42.5747 164.54 43.669C164.54 45.1665 164.822 46.3184 165.386 47.119C165.951 47.9254 166.895 48.4725 168.208 48.7605C169.522 49.0542 171.261 49.1982 173.415 49.1982C174.072 49.1982 174.82 49.181 175.661 49.1464C176.502 49.1118 177.343 49.0485 178.184 48.9563C179.025 48.8642 179.739 48.8008 180.321 48.7663L182.625 37.8058H174.682L175.725 33.0369H189.53L185.257 53.0341C184.013 53.253 182.665 53.443 181.202 53.6101C179.739 53.7771 178.305 53.9038 176.9 53.996C175.494 54.0881 174.221 54.1342 173.093 54.1342V54.1284Z" fill="#231F20"/>
<path d="M191.391 53.685L213.525 15.9885H221.577L227.711 53.685H221.519L219.93 44.2623H203.325L197.738 53.685H191.379H191.391ZM205.968 39.2745H219.336L216.543 21.9612H216.215L205.968 39.2745Z" fill="#231F20"/>
<path d="M234.127 53.685L242.179 15.9885H250.398L256.422 43.2198H256.699L274.34 15.9885H282.836L274.784 53.685H268.702L274.674 25.5782H274.398L256.428 53.685H252.264L246.291 25.5782H245.963L240.048 53.685H234.133H234.127Z" fill="#231F20"/>
<path d="M284.972 53.685L293.024 15.9885H318.994L317.9 21.0858H298.231L295.818 32.1557H312.803L311.76 37.1435H294.775L292.31 48.5935H312.037L310.942 53.6907H284.972V53.685Z" fill="#231F20"/>
</svg>
