<svg width="213" height="44" viewBox="0 0 213 44" fill="none" xmlns="http://www.w3.org/2000/svg">
<g clip-path="url(#clip0_492_4577)">
<path d="M24.2673 10.3888C21.7247 10.1778 19.1822 9.94007 16.6358 9.76366C14.3579 9.60643 12.0761 9.5144 9.79435 9.40318C9.49139 9.38784 9.22294 9.36867 8.97751 9.13091C5.95944 6.1972 2.92987 3.27117 0 0.210918C1.21183 -0.0843691 2.30094 0.0115035 3.38622 0.0268431C9.53357 0.122716 15.6656 0.456352 21.7784 1.10829C22.5991 1.13897 37.4708 2.57705 49.0753 7.27098C50.8892 8.08014 52.6302 9.02353 54.1028 10.3888C56.6799 12.7779 56.6876 15.3741 54.0952 17.7326C51.6945 19.9185 48.7301 21.0651 45.7427 22.1542C45.4666 22.2539 45.2174 22.1427 44.9566 22.0507C44.04 21.7247 43.1158 21.4141 42.1149 21.069C42.8205 20.7583 43.4878 20.4822 44.1397 20.1716C44.876 19.8188 45.5893 19.4238 46.1339 18.7949C46.8319 17.9895 46.8434 17.1957 46.1569 16.3789C45.3823 15.4585 44.3315 14.937 43.2577 14.4768C39.9942 13.0847 36.5466 12.3522 33.0799 11.7118C30.3839 11.2133 25.6363 10.523 24.2673 10.3888Z" fill="#97CC6D"/>
<path d="M49.1903 30.0925C48.6649 30.7674 48.013 31.3043 47.3035 31.7568C46.2681 32.4241 45.1943 32.9802 44.086 33.4634C42.5252 32.9917 40.9683 32.6657 39.5072 32.4126C39.6567 32.2784 39.7986 32.1327 39.9367 31.9793C40.9414 30.8518 40.811 29.9583 39.5033 29.199C38.2186 28.4473 36.769 28.1674 35.331 27.8951C35.12 27.8567 34.8401 27.7877 34.3991 27.7379C31.1049 27.3544 27.8069 27.1396 24.4897 27.1089C24.2404 27.1089 24.087 27.0054 23.9336 26.8405C21.0536 23.7649 17.9819 20.8849 14.9331 17.8361C15.8305 17.7096 16.6473 17.8745 17.4565 17.932C23.9029 18.3922 27.4042 18.837 31.473 19.558C36.631 20.394 41.7046 21.5292 46.387 23.9566C47.4531 24.5089 48.4425 25.1838 49.1941 26.1502C50.2142 27.4541 50.2104 28.7848 49.1941 30.0925H49.1903Z" fill="#97CC6D"/>
<path d="M40.3202 38.2723C38.2762 38.0346 36.2207 37.9234 34.1614 37.9042C34.008 37.9042 33.9121 37.8428 33.8162 37.7393C32.0291 35.8295 30.1232 34.0424 28.2288 32.148C28.7848 32.0675 29.291 32.1748 29.7934 32.2055C31.1471 32.2976 34.0425 32.5392 34.1537 32.5468C35.5803 32.7002 38.234 33.1796 38.4948 33.2256C41.6969 33.7433 44.8492 34.4374 47.7561 35.9446C48.4157 36.2859 49.0293 36.7077 49.4971 37.3059C50.1299 38.1189 50.1299 38.9434 49.4971 39.7564C49.1712 40.1745 48.7685 40.5043 48.3275 40.788C46.387 42.0382 44.205 42.6748 41.9999 43.2385C41.5282 43.3574 41.0297 43.4073 40.5772 43.576C39.9137 43.8253 39.4957 43.576 39.1391 42.9931C39.9482 42.8167 40.7421 42.6288 41.5014 42.322C42.3335 41.9884 43.1465 41.6125 43.7601 40.9223C44.3852 40.2243 44.3047 39.6682 43.4917 39.1966C42.602 38.5293 40.5963 38.3145 40.3317 38.2685L40.3202 38.2723Z" fill="#97CC6D"/>
<path d="M68.2613 36.0404C67.41 36.0404 66.4666 36.0097 65.435 35.9484C64.3996 35.887 63.3987 35.7912 62.4246 35.6569C61.4506 35.5227 60.5877 35.3962 59.8361 35.2734L60.7488 30.8211C61.6231 30.894 62.5243 30.9669 63.4485 31.0397C64.3728 31.1126 65.2586 31.1663 66.11 31.2046C66.9613 31.2391 67.6899 31.2583 68.2997 31.2583C69.3926 31.2583 70.2747 31.2046 70.9458 31.0934C71.6131 30.9822 72.1384 30.7291 72.5143 30.3264C72.8901 29.9238 73.1892 29.2872 73.4078 28.4128C73.4576 28.1712 73.4922 27.9373 73.519 27.7187C73.542 27.5001 73.5573 27.3045 73.5573 27.1358C73.5573 26.457 73.3388 25.993 72.9016 25.7514C72.4644 25.5098 71.7204 25.3871 70.6773 25.3871H66.3707L67.3563 20.7162H71.6629C72.3685 20.7162 72.9629 20.651 73.45 20.5167C73.937 20.3825 74.3358 20.1332 74.6541 19.7689C74.9686 19.4046 75.214 18.8677 75.3828 18.1621C75.4556 17.9435 75.5055 17.7134 75.5285 17.468C75.5515 17.2264 75.5668 16.9925 75.5668 16.7739C75.5668 16.2638 75.4249 15.8918 75.1488 15.6617C74.8689 15.4317 74.4202 15.2859 73.7989 15.2246C73.1777 15.1632 72.357 15.1325 71.3369 15.1325C70.6313 15.1325 69.8452 15.1555 68.9823 15.2054C68.1195 15.2552 67.2604 15.3166 66.4091 15.3895C65.5577 15.4623 64.7908 15.5467 64.112 15.6464L65.0592 11.1212C65.7878 10.9755 66.6162 10.8413 67.5404 10.7186C68.4646 10.5958 69.3888 10.5076 70.313 10.4463C71.2372 10.3849 72.0886 10.3542 72.8671 10.3542C75.1297 10.3542 76.9474 10.5537 78.3203 10.9563C79.6932 11.359 80.6864 11.9419 81.2923 12.7089C81.8983 13.4759 82.2051 14.4307 82.2051 15.5735C82.2051 16.0836 82.1667 16.5898 82.0938 17.0883C82.021 17.5869 81.9251 18.0317 81.8024 18.419C81.3882 19.7804 80.6903 20.8082 79.7047 21.5023C78.7191 22.1964 77.5955 22.6528 76.33 22.8714V23.0171C77.4728 23.2855 78.3471 23.7227 78.9569 24.3286C79.5628 24.9384 79.8696 25.8971 79.8696 27.2086C79.8696 27.5269 79.8466 27.8644 79.7967 28.2287C79.7469 28.593 79.6855 28.9842 79.6127 29.3945C79.4171 30.4146 79.1141 31.335 78.7 32.148C78.2858 32.961 77.6722 33.6551 76.8592 34.2265C76.0424 34.7979 74.9456 35.2428 73.5573 35.5572C72.1691 35.8717 70.4089 36.0328 68.269 36.0328L68.2613 36.0404Z" fill="#97CC6D"/>
<path d="M93.2496 36.0404C91.0829 36.0404 89.3227 35.864 87.9613 35.5112C86.5999 35.1584 85.5952 34.5371 84.9509 33.6513C84.3066 32.7654 83.9845 31.5421 83.9845 29.9851C83.9845 29.1108 84.065 28.1137 84.2223 26.9939C84.3795 25.8741 84.6173 24.6124 84.9317 23.2012C85.4188 21.0383 85.8981 19.2014 86.3736 17.6904C86.8492 16.1833 87.3822 14.9485 87.9805 13.9859C88.5749 13.0272 89.3112 12.2832 90.1894 11.7616C91.0637 11.2401 92.1452 10.8758 93.4375 10.6687C94.7261 10.4616 96.306 10.3581 98.1813 10.3581C98.9368 10.3581 99.7306 10.3811 100.57 10.4309C101.41 10.4808 102.212 10.5537 102.979 10.6495C103.746 10.7454 104.394 10.8566 104.931 10.9793L103.945 15.4662C103.144 15.3933 102.427 15.3319 101.794 15.2821C101.161 15.2322 100.62 15.1977 100.172 15.1709C99.7229 15.1479 99.3394 15.1364 99.0212 15.1364C97.8784 15.1364 96.9273 15.1785 96.1757 15.2629C95.4202 15.3473 94.8028 15.5314 94.3157 15.8113C93.8287 16.0913 93.4222 16.5169 93.0924 17.0883C92.7626 17.6597 92.4673 18.4459 92.1989 19.443C91.9304 20.44 91.6505 21.694 91.359 23.2012C91.0906 24.4398 90.872 25.5136 90.7033 26.411C90.5345 27.3122 90.4463 28.0408 90.4463 28.6007C90.4463 29.3792 90.615 29.9583 90.9563 30.3341C91.2977 30.7099 91.8384 30.9592 92.5785 31.0819C93.3187 31.2046 94.3234 31.266 95.5889 31.266C96.3674 31.266 97.2494 31.2353 98.235 31.1739C99.2206 31.1126 100.091 31.0359 100.843 30.9362L99.8226 35.5342C99.2858 35.6301 98.6415 35.7221 97.8899 35.8065C97.1344 35.8909 96.3559 35.9522 95.5544 35.9906C94.7529 36.0289 93.9859 36.0443 93.2573 36.0443L93.2496 36.0404Z" fill="#97CC6D"/>
<path d="M115.25 36.0404C112.892 36.0404 110.986 35.8564 109.54 35.492C108.095 35.1277 107.036 34.472 106.365 33.5209C105.694 32.5737 105.36 31.2238 105.36 29.4712C105.36 28.6697 105.441 27.734 105.598 26.6603C105.755 25.5903 105.993 24.3977 106.307 23.0861C106.745 20.9961 107.209 19.209 107.692 17.7249C108.179 16.2408 108.743 15.0213 109.387 14.0588C110.031 13.1 110.802 12.3446 111.703 11.7962C112.604 11.2478 113.705 10.872 115.005 10.6649C116.305 10.4578 117.843 10.3542 119.618 10.3542C120.543 10.3542 121.521 10.3926 122.556 10.4655C123.591 10.5383 124.619 10.6304 125.639 10.7377C126.659 10.8489 127.56 10.9755 128.339 11.1212L127.683 14.2965C126.928 14.2006 126.138 14.1086 125.313 14.0242C124.485 13.9399 123.714 13.8708 122.997 13.8248C122.28 13.775 121.666 13.752 121.156 13.752C119.649 13.752 118.372 13.7826 117.325 13.844C116.278 13.9054 115.404 14.0818 114.698 14.3732C113.993 14.6647 113.391 15.144 112.892 15.8151C112.393 16.4824 111.949 17.4143 111.561 18.607C111.17 19.7996 110.794 21.3297 110.43 23.205C110.139 24.4705 109.92 25.5826 109.774 26.5414C109.628 27.5039 109.556 28.3476 109.556 29.0762C109.556 30.0733 109.744 30.8403 110.119 31.3733C110.495 31.9102 111.124 32.2746 111.998 32.4663C112.873 32.6619 114.031 32.7577 115.465 32.7577C115.902 32.7577 116.401 32.7462 116.961 32.7232C117.521 32.7002 118.081 32.658 118.641 32.5967C119.2 32.5353 119.676 32.4931 120.063 32.4701L121.597 25.1723H116.309L117.003 21.997H126.195L123.35 35.3118C122.521 35.4575 121.624 35.5841 120.65 35.6953C119.676 35.8065 118.721 35.8909 117.785 35.9522C116.85 36.0136 116.002 36.0443 115.25 36.0443V36.0404Z" fill="#231F20"/>
<path d="M127.434 35.7451L142.171 10.6457H147.533L151.617 35.7451H147.494L146.436 29.4712H135.38L131.66 35.7451H127.426H127.434ZM137.14 26.1502H146.041L144.181 14.6225H143.962L137.14 26.1502Z" fill="#231F20"/>
<path d="M155.889 35.7451L161.25 10.6457H166.723L170.734 28.7771H170.918L182.664 10.6457H188.321L182.96 35.7451H178.91L182.887 17.0308H182.703L170.738 35.7451H167.965L163.988 17.0308H163.77L159.831 35.7451H155.893H155.889Z" fill="#231F20"/>
<path d="M189.743 35.7451L195.105 10.6457H212.396L211.668 14.0396H198.571L196.965 21.4103H208.274L207.58 24.7313H196.27L194.629 32.3551H207.764L207.035 35.749H189.743V35.7451Z" fill="#231F20"/>
</g>
<defs>
<clipPath id="clip0_492_4577">
<rect width="212.4" height="43.6719" fill="white"/>
</clipPath>
</defs>
</svg>
