<svg width="22" height="22" fill="none" xmlns="http://www.w3.org/2000/svg"><path d="M21 11c0-5.523-4.477-10-10-10S1 5.477 1 11s4.477 10 10 10 10-4.477 10-10z" stroke="#828181" stroke-width="1.5" stroke-linecap="round" stroke-linejoin="round"/><path d="M19 4.7c-.935.066-2.132.43-2.962 1.503-1.5 1.94-2.999 2.103-3.999 1.456-1.5-.97-.239-2.543-1.999-3.397C8.893 3.705 8.733 2.19 9.372 1M1 10c.763.662 1.83 1.268 3.089 1.268 2.6 0 3.12.497 3.12 2.484s0 1.987.52 3.477c.338.97.456 1.938-.218 2.771M21 12.452c-.887-.51-2-.72-3.127.088-2.155 1.55-3.642.266-4.311 1.55-.985 1.887 2.534 2.48-.562 6.91" stroke="#828181" stroke-width="1.5" stroke-linecap="round" stroke-linejoin="round"/></svg>