<svg width="16" height="17" viewBox="0 0 16 17" fill="none" xmlns="http://www.w3.org/2000/svg">
<path d="M10.9067 9.83337C10.96 9.39337 11 8.95337 11 8.50004C11 8.04671 10.96 7.60671 10.9067 7.16671H13.16C13.2667 7.59337 13.3333 8.04004 13.3333 8.50004C13.3333 8.96004 13.2667 9.40671 13.16 9.83337M9.72668 13.54C10.1267 12.8 10.4333 12 10.6467 11.1667H12.6133C11.9675 12.2789 10.9428 13.1214 9.72668 13.54ZM9.56001 9.83337H6.44001C6.37334 9.39337 6.33334 8.95337 6.33334 8.50004C6.33334 8.04671 6.37334 7.60004 6.44001 7.16671H9.56001C9.62001 7.60004 9.66668 8.04671 9.66668 8.50004C9.66668 8.95337 9.62001 9.39337 9.56001 9.83337ZM8.00001 13.8067C7.44668 13.0067 7.00001 12.12 6.72668 11.1667H9.27334C9.00001 12.12 8.55334 13.0067 8.00001 13.8067ZM5.33334 5.83337H3.38668C4.02577 4.71806 5.04978 3.8742 6.26668 3.46004C5.86668 4.20004 5.56668 5.00004 5.33334 5.83337ZM3.38668 11.1667H5.33334C5.56668 12 5.86668 12.8 6.26668 13.54C5.05219 13.1216 4.02954 12.2788 3.38668 11.1667ZM2.84001 9.83337C2.73334 9.40671 2.66668 8.96004 2.66668 8.50004C2.66668 8.04004 2.73334 7.59337 2.84001 7.16671H5.09334C5.04001 7.60671 5.00001 8.04671 5.00001 8.50004C5.00001 8.95337 5.04001 9.39337 5.09334 9.83337M8.00001 3.18671C8.55334 3.98671 9.00001 4.88004 9.27334 5.83337H6.72668C7.00001 4.88004 7.44668 3.98671 8.00001 3.18671ZM12.6133 5.83337H10.6467C10.4377 5.00778 10.1288 4.21078 9.72668 3.46004C10.9533 3.88004 11.9733 4.72671 12.6133 5.83337ZM8.00001 1.83337C4.31334 1.83337 1.33334 4.83337 1.33334 8.50004C1.33334 10.2682 2.03572 11.9638 3.28596 13.2141C3.90502 13.8331 4.63995 14.3242 5.44879 14.6592C6.25762 14.9943 7.12453 15.1667 8.00001 15.1667C9.76812 15.1667 11.4638 14.4643 12.7141 13.2141C13.9643 11.9638 14.6667 10.2682 14.6667 8.50004C14.6667 7.62456 14.4942 6.75765 14.1592 5.94882C13.8242 5.13998 13.3331 4.40505 12.7141 3.786C12.095 3.16694 11.3601 2.67588 10.5512 2.34084C9.7424 2.00581 8.87549 1.83337 8.00001 1.83337Z" fill="#303030"/>
</svg>
