<svg width="17" height="16" viewBox="0 0 17 16" fill="none" xmlns="http://www.w3.org/2000/svg">
<path d="M10.3667 5.33341L11.1667 6.13341L6.63337 10.6667L5.83337 9.86675L10.3667 5.33341ZM3.16671 2.66675H13.8334C14.5734 2.66675 15.1667 3.26008 15.1667 4.00008V6.66675C14.8131 6.66675 14.4739 6.80722 14.2239 7.05727C13.9738 7.30732 13.8334 7.64646 13.8334 8.00008C13.8334 8.3537 13.9738 8.69284 14.2239 8.94289C14.4739 9.19294 14.8131 9.33342 15.1667 9.33342V12.0001C15.1667 12.7401 14.5734 13.3334 13.8334 13.3334H3.16671C2.81309 13.3334 2.47395 13.1929 2.2239 12.9429C1.97385 12.6928 1.83337 12.3537 1.83337 12.0001V9.33342C2.57337 9.33342 3.16671 8.74008 3.16671 8.00008C3.16671 7.64646 3.02623 7.30732 2.77618 7.05727C2.52613 6.80722 2.187 6.66675 1.83337 6.66675V4.00008C1.83337 3.64646 1.97385 3.30732 2.2239 3.05727C2.47395 2.80722 2.81309 2.66675 3.16671 2.66675ZM3.16671 4.00008V5.69341C3.57183 5.92701 3.90828 6.26319 4.14221 6.66812C4.37614 7.07304 4.49931 7.53244 4.49931 8.00008C4.49931 8.46772 4.37614 8.92712 4.14221 9.33205C3.90828 9.73697 3.57183 10.0731 3.16671 10.3067V12.0001H13.8334V10.3067C13.4283 10.0731 13.0918 9.73697 12.8579 9.33205C12.6239 8.92712 12.5008 8.46772 12.5008 8.00008C12.5008 7.53244 12.6239 7.07304 12.8579 6.66812C13.0918 6.26319 13.4283 5.92701 13.8334 5.69341V4.00008H3.16671ZM6.83337 5.33341C7.38671 5.33341 7.83337 5.78008 7.83337 6.33341C7.83337 6.88675 7.38671 7.33342 6.83337 7.33342C6.28004 7.33342 5.83337 6.88675 5.83337 6.33341C5.83337 5.78008 6.28004 5.33341 6.83337 5.33341ZM10.1667 8.66675C10.72 8.66675 11.1667 9.11341 11.1667 9.66675C11.1667 10.2201 10.72 10.6667 10.1667 10.6667C9.61337 10.6667 9.16671 10.2201 9.16671 9.66675C9.16671 9.11341 9.61337 8.66675 10.1667 8.66675Z" fill="#303030"/>
</svg>
